<?xml version="1.0" standalone="no"?>
<!DOCTYPE svg PUBLIC "-//W3C//DTD SVG 20010904//EN"
 "http://www.w3.org/TR/2001/REC-SVG-20010904/DTD/svg10.dtd">
<svg version="1.0" xmlns="http://www.w3.org/2000/svg"
 width="1838pt" height="1838pt" viewBox="0 0 1838.000000 1426.000000"
 preserveAspectRatio="xMidYMid meet">
<metadata>
Created by potrace 1.15, written by Peter Selinger 2001-2017
</metadata>
<g transform="translate(0.000000,1426.000000) scale(0.100000,-0.100000)"
fill="#000000" stroke="none">
<path d="M12429 13187 c-35 -19 -127 -67 -204 -107 -452 -236 -1040 -581
-1561 -916 -2671 -1715 -5394 -4143 -7226 -6444 -714 -897 -1270 -1743 -1677
-2550 -188 -372 -381 -816 -381 -875 0 -58 46 -123 101 -143 21 -9 9115 19
13673 41 554 3 1004 2 1000 -3 -28 -25 -455 -172 -724 -249 -1291 -369 -2938
-565 -5057 -604 -116 -2 -135 -4 -160 -23 -42 -32 -66 -80 -65 -132 0 -51 21
-84 73 -121 l34 -23 375 6 c2394 42 4432 363 5726 902 144 60 484 226 562 274
100 62 96 208 -8 262 -35 17 -245 17 -6645 -6 -3636 -14 -7036 -27 -7557 -30
-574 -3 -948 -2 -948 4 0 40 262 587 422 879 1074 1968 3117 4273 5660 6388
1541 1281 3210 2417 4633 3155 180 94 205 118 205 197 0 55 -27 103 -72 131
-49 30 -104 26 -179 -13z"/>
<path d="M10180 8699 c-1741 -2481 -3222 -4592 -3292 -4692 -558 -799 -734
-1051 -741 -1063 -7 -12 24 -14 186 -14 l193 0 269 383 c148 210 364 517 479
682 116 165 287 409 381 543 l170 243 295 -1 c2398 -5 4279 518 5555 1545 592
477 1032 1050 1321 1721 60 141 164 455 203 614 186 766 152 1561 -98 2320
-292 883 -844 1624 -1588 2131 -74 50 -142 93 -151 95 -13 3 -831 -1156 -3182
-4507z m3359 3995 c624 -489 1095 -1204 1311 -1991 258 -937 172 -1889 -246
-2738 -676 -1372 -2159 -2315 -4212 -2680 -632 -113 -1207 -165 -2001 -181
-309 -7 -334 -6 -328 9 5 13 5323 7598 5360 7645 5 6 12 12 14 12 3 0 49 -34
102 -76z"/>
<path d="M14030 4238 c-288 -15 -564 -108 -805 -272 -120 -81 -306 -266 -380
-379 -32 -48 -71 -123 -88 -165 -26 -65 -31 -91 -31 -167 -1 -75 3 -97 22
-133 113 -212 460 -267 913 -145 l140 37 125 174 c69 96 124 175 122 177 -2 1
-57 -19 -123 -46 -221 -89 -450 -133 -576 -110 -225 39 -234 254 -21 470 129
130 306 223 501 263 78 16 118 19 216 14 66 -3 149 -12 185 -21 36 -8 76 -17
90 -20 22 -5 36 10 132 139 98 132 105 145 85 149 -54 13 -239 36 -307 39 -41
2 -131 0 -200 -4z"/>
<path d="M7290 3693 c-206 -295 -410 -588 -453 -650 l-78 -113 194 0 195 0
451 643 c248 354 451 647 451 650 0 4 -87 7 -192 7 l-193 -1 -375 -536z"/>
<path d="M8278 4213 c-9 -10 -210 -297 -448 -638 -238 -341 -437 -626 -443
-632 -7 -10 31 -13 185 -13 l195 0 268 380 c147 209 271 382 275 385 9 6 8 12
105 -405 42 -179 78 -333 81 -342 5 -16 23 -18 187 -18 l182 0 450 642 c248
352 452 645 453 650 2 4 -83 8 -190 8 l-193 -1 -269 -384 c-148 -212 -272
-385 -276 -385 -3 0 -44 159 -90 353 -46 193 -87 367 -92 385 l-9 32 -178 0
c-157 0 -180 -2 -193 -17z"/>
<path d="M9660 3594 c-245 -350 -449 -643 -453 -650 -7 -12 24 -14 185 -14
l193 0 270 385 c149 212 273 385 276 385 3 0 46 -172 95 -382 l90 -383 184 -2
185 -2 440 629 c242 346 446 638 454 650 13 20 12 20 -181 20 l-194 0 -274
-390 c-150 -215 -274 -389 -276 -388 -2 3 -184 765 -184 773 0 3 -82 5 -183 5
l-182 0 -445 -636z"/>
<path d="M11572 3582 l-723 -647 197 -3 196 -2 153 145 153 145 226 0 c187 0
226 -2 226 -14 0 -11 -50 -146 -97 -263 -4 -10 40 -13 198 -13 l204 0 199 643
c110 353 201 645 203 650 2 4 -89 7 -204 6 l-208 0 -723 -647z m598 57 l-88
-234 -169 -3 -168 -2 45 44 c122 119 463 437 466 433 2 -1 -37 -109 -86 -238z"/>
<path d="M14598 3593 c-243 -350 -447 -642 -451 -650 -7 -11 82 -13 535 -13
l543 1 77 112 77 112 -343 5 -344 5 369 529 c203 292 369 531 369 533 0 2 -87
3 -194 3 l-194 0 -444 -637z"/>
<path d="M15819 3678 c-211 -304 -415 -596 -452 -650 l-68 -98 572 2 572 3 77
110 77 110 -372 5 -371 5 106 155 107 155 273 5 272 5 79 113 78 112 -264 0
c-146 0 -265 2 -265 5 0 3 43 67 96 142 l96 138 311 5 311 5 73 105 c40 57 73
108 73 112 0 4 -224 8 -498 8 l-498 0 -385 -552z"/>
<path d="M4020 1405 c0 -60 9 -80 25 -55 3 6 44 10 91 10 l85 0 -3 -210 -3
-210 67 0 c64 0 95 11 63 24 -13 4 -15 37 -15 201 l0 195 88 0 c55 0 92 -4
100 -12 9 -9 12 3 12 57 0 54 -3 66 -12 57 -15 -15 -464 -17 -473 -2 -16 25
-25 5 -25 -55z"/>
<path d="M5405 1460 c-4 -6 -95 -10 -241 -10 -149 0 -234 -4 -234 -10 0 -5 5
-10 10 -10 6 0 10 -85 10 -235 0 -150 -4 -235 -10 -235 -5 0 -10 -4 -10 -10 0
-6 33 -10 80 -10 74 0 101 10 65 24 -12 4 -15 25 -15 101 l0 95 110 0 c89 0
112 -3 116 -15 14 -35 24 -10 24 55 0 40 -4 70 -10 70 -5 0 -10 -4 -10 -10 0
-6 -45 -10 -115 -10 l-115 0 0 55 0 55 175 0 c110 0 175 -4 175 -10 0 -5 5
-10 10 -10 6 0 10 28 10 65 0 60 -9 80 -25 55z"/>
<path d="M1330 1441 c0 -5 8 -12 18 -15 9 -4 61 -68 115 -144 l97 -137 0 -87
c0 -48 -4 -90 -10 -93 -26 -16 -3 -25 65 -25 43 0 75 4 75 10 0 6 -4 10 -10
10 -6 0 -10 39 -10 96 l0 95 96 135 c52 75 102 138 110 141 35 13 7 23 -66 23
-47 0 -80 -4 -80 -10 0 -5 5 -10 10 -10 6 0 10 -5 10 -10 0 -16 -122 -180
-130 -175 -4 2 -30 38 -59 79 -49 71 -62 106 -41 106 6 0 10 5 10 10 0 6 -40
10 -100 10 -55 0 -100 -4 -100 -9z"/>
<path d="M2130 1440 c0 -5 5 -10 10 -10 6 0 10 -7 10 -16 0 -15 -165 -371
-201 -432 -10 -18 -19 -35 -19 -38 0 -2 29 -4 65 -4 60 0 80 9 55 25 -6 4 0
26 15 56 l25 49 115 0 115 0 25 -49 c15 -30 21 -52 15 -56 -27 -17 -2 -25 75
-25 80 0 102 8 72 27 -19 11 -227 418 -227 443 0 11 5 20 11 20 5 0 7 5 4 10
-3 6 -42 10 -86 10 -46 0 -79 -4 -79 -10z"/>
<path d="M2777 1433 c-60 -20 -134 -85 -158 -138 -25 -53 -24 -147 0 -200 41
-89 135 -144 260 -152 64 -5 87 -1 146 19 59 22 133 49 143 54 1 1 -12 25 -30
54 -30 49 -33 51 -42 30 -27 -61 -211 -93 -293 -51 -176 89 -101 321 104 321
63 0 141 -27 159 -56 l17 -25 38 58 38 57 -87 23 c-104 27 -224 29 -295 6z"/>
<path d="M3330 1441 c0 -6 5 -13 10 -16 6 -4 10 -92 10 -230 0 -138 -4 -226
-10 -230 -5 -3 -10 -10 -10 -16 0 -12 137 -12 145 1 3 6 1 10 -4 10 -7 0 -11
36 -11 100 l0 100 155 0 155 0 0 -94 c0 -53 -4 -98 -10 -101 -5 -3 -10 -10
-10 -16 0 -12 137 -12 145 1 3 6 1 10 -4 10 -8 0 -11 76 -11 235 0 159 3 235
11 235 5 0 7 5 4 10 -8 13 -145 13 -145 1 0 -6 5 -13 10 -16 6 -3 10 -44 10
-91 l0 -84 -155 0 -155 0 0 90 c0 57 4 90 11 90 5 0 7 5 4 10 -8 13 -145 13
-145 1z"/>
<path d="M5530 1441 c0 -5 7 -11 15 -15 13 -4 15 -40 15 -231 0 -191 -2 -227
-15 -231 -36 -14 -9 -24 65 -24 47 0 80 4 80 10 0 6 -4 10 -10 10 -6 0 -10 85
-10 235 0 150 4 235 10 235 6 0 10 5 10 10 0 6 -33 10 -80 10 -44 0 -80 -4
-80 -9z"/>
<path d="M5860 1441 c0 -6 5 -13 10 -16 6 -4 10 -92 10 -230 0 -138 -4 -226
-10 -230 -26 -16 -4 -25 60 -25 39 0 70 4 70 9 0 5 -5 11 -10 13 -7 2 -10 61
-8 166 l3 163 154 -162 c85 -90 149 -165 143 -167 -32 -10 7 -22 74 -22 67 0
90 9 64 25 -6 4 -10 92 -10 230 0 138 4 226 10 230 26 16 4 25 -60 25 -64 0
-86 -9 -60 -25 6 -4 10 -69 10 -162 l0 -155 -142 147 c-87 90 -144 157 -146
171 -3 23 -7 24 -83 24 -43 0 -79 -4 -79 -9z"/>
<path d="M6600 1440 c0 -5 5 -10 10 -10 6 0 10 -85 10 -235 0 -150 -4 -235
-10 -235 -5 0 -10 -4 -10 -10 0 -12 147 -13 154 -1 3 5 -1 11 -9 15 -13 4 -15
40 -15 231 0 191 2 227 15 231 8 4 12 10 9 15 -7 12 -154 11 -154 -1z"/>
<path d="M7024 1434 c-22 -8 -56 -30 -75 -50 -31 -32 -34 -41 -34 -94 0 -99
41 -126 220 -145 135 -14 168 -25 163 -57 -12 -81 -243 -90 -320 -14 l-25 25
-21 -52 c-27 -65 -28 -64 6 -70 15 -3 52 -13 82 -21 110 -32 266 -13 337 40
61 46 69 146 15 197 -37 35 -73 46 -201 57 -64 6 -113 16 -128 25 -34 23 -27
55 17 78 70 36 242 1 267 -54 8 -19 12 -15 41 39 18 33 32 62 32 65 0 2 -17 7
-37 10 -21 4 -63 13 -93 22 -67 19 -191 18 -246 -1z"/>
<path d="M7570 1441 c0 -6 5 -13 10 -16 6 -4 10 -92 10 -230 0 -138 -4 -226
-10 -230 -26 -16 -4 -25 58 -25 l67 0 -3 110 -4 111 154 -3 153 -3 3 -93 c2
-75 0 -93 -13 -98 -32 -12 -1 -24 63 -24 l67 0 0 255 0 255 -67 0 c-64 0 -95
-11 -63 -24 12 -4 15 -24 15 -91 l0 -85 -156 0 -156 0 4 100 3 100 -67 0 c-38
0 -68 -4 -68 -9z"/>
<path d="M8306 1441 c-3 -5 1 -11 9 -15 13 -4 15 -40 15 -231 0 -191 -2 -227
-15 -231 -8 -4 -12 -10 -9 -15 7 -12 154 -11 154 1 0 6 -4 10 -10 10 -6 0 -10
85 -10 235 0 150 4 235 10 235 6 0 10 5 10 10 0 12 -147 13 -154 1z"/>
<path d="M8630 1441 c0 -6 5 -13 10 -16 6 -4 10 -92 10 -230 0 -138 -4 -226
-10 -230 -26 -16 -4 -25 60 -25 64 0 86 9 60 25 -6 4 -10 71 -10 168 l1 162
154 -160 c110 -114 152 -165 149 -177 -5 -16 3 -18 70 -18 69 0 92 9 66 25 -6
4 -10 92 -10 230 0 138 4 226 10 230 26 16 4 25 -60 25 -40 0 -70 -4 -70 -10
0 -5 5 -10 10 -10 6 0 10 -60 10 -160 l0 -159 -137 140 c-78 78 -142 153 -148
169 -9 30 -10 30 -87 30 -43 0 -78 -4 -78 -9z"/>
<path d="M9512 1435 c-132 -41 -203 -163 -173 -298 31 -140 147 -206 346 -194
131 7 250 56 217 89 -7 7 -12 39 -12 71 0 45 4 63 18 73 14 11 -2 13 -109 14
-100 0 -129 3 -139 15 -20 24 -30 7 -30 -51 0 -55 8 -66 30 -39 9 10 32 15 76
15 l64 0 0 -44 0 -45 -53 -11 c-29 -7 -87 -11 -129 -9 -63 4 -81 9 -111 32
-49 37 -67 75 -67 137 0 68 24 116 73 148 36 24 50 27 126 27 104 0 158 -17
172 -53 12 -31 20 -24 53 51 l25 57 -29 0 c-16 0 -55 7 -87 15 -70 18 -203 18
-261 0z"/>
</g>
</svg>
