<svg xmlns="http://www.w3.org/2000/svg" viewBox="0 0 1196 1196" width="1196" height="1196">
	<defs>
		<linearGradient id="grd1" gradientUnits="userSpaceOnUse"  x1="376.977" y1="497.657" x2="1062.881" y2="497.657">
			<stop offset="0" stop-color="#000000"  />
			<stop offset="1" stop-color="#000000"  />
		</linearGradient>
	</defs>
	<style>
		tspan { white-space:pre }
		.shp0 { fill: #000000 } 
		.shp1 { fill: none;stroke: url(#grd1);stroke-linecap:round;stroke-width: 24 } 
		.shp2 { fill: none;stroke: #ca0000;stroke-linecap:round;stroke-linejoin:round;stroke-width: 23 } 
		.shp3 { fill: none;stroke: #ca0000;stroke-linecap:round;stroke-linejoin:round;stroke-width: 22 } 
	</style>
	<g id="Layer">
		<g id="Layer">
			<g id="svg4940">
				<g id="layer1">
					<g id="flowRoot5151-3-1-9-9-1-2-6-4">
						<path id="path5215" class="shp0" d="M27.66 1023.94L27.66 1025.23C27.23 1025.23 26.81 1025.31 26.44 1025.45C26.04 1025.55 25.86 1025.84 25.86 1026.32C25.86 1026.61 26.2 1027.3 26.86 1028.41C27.58 1029.47 28.4 1030.68 29.33 1032.09C30.28 1033.44 31.26 1034.81 32.29 1036.27C33.29 1037.7 34.11 1038.94 34.75 1039.95L43.16 1028.36C43.56 1027.77 43.85 1027.32 44.09 1026.98C44.33 1026.64 44.46 1026.35 44.46 1026.05C44.46 1025.71 44.22 1025.5 43.74 1025.42C43.32 1025.31 42.9 1025.29 42.53 1025.29L42.53 1023.99L55.12 1023.99L55.12 1025.29C54.73 1025.29 54.38 1025.34 54.04 1025.42C53.69 1025.47 53.35 1025.63 52.95 1025.92C52.61 1026.16 52.24 1026.56 51.79 1027.09C51.39 1027.56 50.92 1028.25 50.36 1029.1L38.11 1046.45L38.11 1059.26C38.11 1060.13 38.66 1060.56 39.78 1060.56L39.78 1061.85L28.4 1061.85L28.4 1060.56C28.82 1060.56 29.19 1060.45 29.48 1060.27C29.77 1060.03 29.91 1059.68 29.91 1059.26L29.91 1046.45L16.02 1027.01C15.67 1026.53 15.14 1026.11 14.43 1025.79C13.77 1025.45 13.19 1025.29 12.71 1025.29L12.71 1023.99L27.66 1023.99L27.66 1023.94Z" />
						<path id="path5217" fill-rule="evenodd" class="shp0" d="M57.4 1060.5C58.03 1060.4 58.51 1060.11 58.83 1059.58C59.22 1059.05 59.57 1058.44 59.91 1057.78L73.22 1029.76C73.56 1029.12 73.85 1028.57 74.09 1028.04C74.38 1027.51 74.52 1027.06 74.52 1026.66C74.52 1026.19 74.36 1025.84 74.01 1025.66C73.67 1025.47 73.33 1025.31 72.93 1025.23L72.93 1023.94L85.1 1023.94L85.1 1025.23C84.76 1025.34 84.44 1025.47 84.09 1025.66C83.75 1025.79 83.59 1026.13 83.59 1026.66C83.59 1027.06 83.67 1027.43 83.8 1027.83C83.99 1028.22 84.25 1028.73 84.6 1029.34L99.57 1058.65C99.81 1059.18 100.13 1059.55 100.5 1059.82C100.92 1060.05 101.4 1060.29 101.93 1060.53L101.93 1061.83L89.25 1061.83L89.25 1060.53C89.44 1060.53 89.68 1060.45 89.97 1060.32C90.26 1060.19 90.39 1059.95 90.39 1059.68C90.39 1059.21 90.21 1058.57 89.81 1057.8L87.08 1052.49L69.57 1052.49L66.98 1057.59C66.5 1058.6 66.26 1059.31 66.26 1059.76C66.26 1060.29 66.71 1060.56 67.64 1060.56L67.64 1061.85L57.4 1061.85L57.4 1060.5ZM84.54 1047.12L78.48 1033.73L71.71 1047.12L84.54 1047.12Z" />
						<path id="path5219" class="shp0" d="M150.13 1056.64C150 1056.64 149.84 1056.64 149.71 1056.64C149.6 1056.59 149.5 1056.56 149.34 1056.56C149.05 1056.56 148.36 1056.85 147.25 1057.43C146.19 1058.02 144.82 1058.65 143.15 1059.37C141.51 1060.08 139.66 1060.71 137.54 1061.24C135.42 1061.77 133.23 1062.04 130.93 1062.04C127.91 1062.04 125 1061.64 122.22 1060.87C119.44 1060.11 116.96 1058.94 114.81 1057.35C112.7 1055.71 111.03 1053.7 109.78 1051.3C108.54 1048.89 107.91 1046.08 107.91 1042.88C107.91 1039.71 108.54 1036.93 109.78 1034.52C111.03 1032.06 112.72 1030.02 114.81 1028.41C116.98 1026.77 119.44 1025.55 122.22 1024.73C125 1023.91 127.91 1023.51 130.93 1023.51C133.39 1023.51 135.58 1023.7 137.54 1024.1C139.55 1024.49 141.3 1024.89 142.8 1025.31C144.29 1025.74 145.48 1026.16 146.32 1026.53C147.2 1026.93 147.73 1027.11 147.91 1027.11C148.15 1027.11 148.33 1026.98 148.49 1026.74C148.68 1026.5 148.84 1026.32 148.92 1026.16L150 1027.03L144.39 1035.74L143.68 1035.24C143.68 1035.1 143.65 1034.94 143.6 1034.81C143.6 1034.68 143.57 1034.49 143.52 1034.31C143.41 1033.78 142.94 1033.25 142.09 1032.72C141.22 1032.14 140.16 1031.64 138.86 1031.21C137.62 1030.79 136.27 1030.42 134.84 1030.13C133.44 1029.84 132.14 1029.71 130.95 1029.71C128.94 1029.71 126.98 1030 125.13 1030.58C123.31 1031.16 121.69 1032.01 120.32 1033.09C118.97 1034.2 117.88 1035.55 117.09 1037.19C116.27 1038.78 115.87 1040.61 115.87 1042.67C115.87 1044.73 116.27 1046.59 117.09 1048.23C117.91 1049.81 118.99 1051.16 120.32 1052.25C121.72 1053.36 123.31 1054.18 125.13 1054.76C127.01 1055.34 128.94 1055.63 130.95 1055.63C132.49 1055.63 134.1 1055.48 135.77 1055.13C137.43 1054.74 138.99 1054.29 140.37 1053.76C141.77 1053.17 142.91 1052.57 143.84 1051.88C144.79 1051.16 145.27 1050.48 145.27 1049.87C145.27 1049.52 145.16 1049.23 144.97 1048.99L145.98 1048.41L150.74 1056.03L150.13 1056.64Z" />
						<path id="path5221" class="shp0" d="M195.62 1026.53C195.62 1025.66 195.09 1025.23 194.03 1025.23L194.03 1023.94L205.11 1023.94L205.11 1025.23C204.77 1025.23 204.48 1025.37 204.19 1025.6C203.95 1025.79 203.82 1026.11 203.82 1026.53L203.82 1059.21C203.82 1059.63 203.95 1059.97 204.19 1060.21C204.48 1060.4 204.8 1060.5 205.11 1060.5L205.11 1061.8L194.03 1061.8L194.03 1060.5C195.09 1060.5 195.62 1060.08 195.62 1059.21L195.62 1045.66L172.44 1045.66L172.44 1059.21C172.44 1059.63 172.57 1059.97 172.81 1060.21C173.1 1060.4 173.42 1060.5 173.73 1060.5L173.73 1061.8L162.86 1061.8L162.86 1060.5C163.76 1060.5 164.24 1060.08 164.24 1059.21L164.24 1026.53C164.24 1025.66 163.79 1025.23 162.86 1025.23L162.86 1023.94L173.73 1023.94L173.73 1025.23C173.39 1025.23 173.1 1025.37 172.81 1025.6C172.57 1025.79 172.44 1026.11 172.44 1026.53L172.44 1038.78L195.62 1038.78L195.62 1026.53Z" />
						<path id="path5223" class="shp0" d="M238.05 1059.23C238.05 1060.11 238.58 1060.53 239.64 1060.53L239.64 1061.83L228.56 1061.83L228.56 1060.53C228.9 1060.53 229.19 1060.42 229.43 1060.24C229.72 1060 229.85 1059.66 229.85 1059.23L229.85 1030.58L217.97 1030.58C217.55 1030.58 217.1 1030.71 216.68 1030.95C216.28 1031.19 216.09 1031.64 216.09 1032.33L214.8 1032.33L214.8 1022.24L216.09 1022.24C216.09 1022.91 216.28 1023.38 216.68 1023.62C217.1 1023.86 217.55 1023.99 217.97 1023.99L249.93 1023.99C250.36 1023.99 250.78 1023.86 251.15 1023.62C251.58 1023.38 251.79 1022.93 251.79 1022.24L253.08 1022.24L253.08 1032.33L251.79 1032.33C251.79 1031.66 251.58 1031.19 251.15 1030.95C250.75 1030.71 250.36 1030.58 249.93 1030.58L238.05 1030.58L238.05 1059.23L238.05 1059.23Z" />
						<path id="path5225" class="shp0" d="M318.83 1031.72C318.83 1031.19 318.62 1030.82 318.2 1030.55C317.8 1030.26 317.11 1030.13 316.11 1030.13L292.77 1030.13L292.77 1039.05L306.87 1039.05C307.83 1039.05 308.57 1038.94 309.1 1038.75C309.62 1038.57 309.89 1038.12 309.89 1037.46L311.19 1037.46L311.19 1047.83L309.89 1047.83C309.89 1046.72 309.62 1046.03 309.1 1045.74C308.57 1045.4 307.83 1045.24 306.87 1045.24L292.77 1045.24L292.77 1059.21C292.77 1059.63 292.96 1059.97 293.35 1060.21C293.78 1060.4 294.31 1060.5 294.94 1060.5L294.94 1061.8L282.69 1061.8L282.69 1060.5C283.93 1060.5 284.57 1060.08 284.57 1059.21L284.57 1026.53C284.57 1025.66 283.93 1025.23 282.69 1025.23L282.69 1023.94L316.11 1023.94C317.11 1023.94 317.8 1023.81 318.2 1023.51C318.62 1023.17 318.83 1022.75 318.83 1022.22L320.13 1022.22L320.13 1031.72L318.83 1031.72L318.83 1031.72Z" />
						<path id="path5227" class="shp0" d="M327.93 1060.5C329.18 1060.5 329.81 1060.08 329.81 1059.21L329.81 1026.53C329.81 1025.66 329.18 1025.23 327.93 1025.23L327.93 1023.94L339.89 1023.94L339.89 1025.23C338.65 1025.23 338.01 1025.66 338.01 1026.53L338.01 1059.21C338.01 1060.08 338.65 1060.5 339.89 1060.5L339.89 1061.8L327.93 1061.8L327.93 1060.5Z" />
						<path id="path5229" class="shp0" d="M352.41 1060.5C353.31 1060.5 353.78 1060.08 353.78 1059.21L353.78 1026.53C353.78 1025.66 353.33 1025.23 352.41 1025.23L352.41 1023.94L364.71 1023.94L364.71 1025.23C364.31 1025.23 364.13 1025.47 364.13 1025.95C364.13 1026.35 364.61 1027.01 365.56 1027.96L386.22 1049.42L386.22 1026.53C386.22 1025.66 385.59 1025.23 384.34 1025.23L384.34 1023.94L395.22 1023.94L395.22 1025.23C394.32 1025.23 393.84 1025.66 393.84 1026.53L393.84 1059.21C393.84 1060.08 394.29 1060.5 395.22 1060.5L395.22 1061.8L383.55 1061.8L383.55 1060.5C384.18 1060.5 384.48 1060.29 384.48 1059.87C384.48 1059.52 384.08 1058.97 383.31 1058.2L361.35 1035.31L361.35 1059.21C361.35 1060.08 361.91 1060.5 363.02 1060.5L363.02 1061.8L352.41 1061.8L352.41 1060.5Z" />
						<path id="path5231" class="shp0" d="M407.81 1060.5C409.06 1060.5 409.69 1060.08 409.69 1059.21L409.69 1026.53C409.69 1025.66 409.06 1025.23 407.81 1025.23L407.81 1023.94L419.77 1023.94L419.77 1025.23C418.53 1025.23 417.89 1025.66 417.89 1026.53L417.89 1059.21C417.89 1060.08 418.53 1060.5 419.77 1060.5L419.77 1061.8L407.81 1061.8L407.81 1060.5Z" />
						<path id="path5233" class="shp0" d="M434.75 1049.92L435.46 1050.29C435.46 1050.71 435.57 1051.11 435.75 1051.45C436.1 1052.04 436.73 1052.62 437.68 1053.17C438.69 1053.7 439.83 1054.18 441.07 1054.6C442.37 1055.03 443.72 1055.4 445.09 1055.69C446.49 1055.93 447.74 1056.06 448.85 1056.06C449.67 1056.06 450.73 1056.01 452.02 1055.93C453.32 1055.79 454.59 1055.53 455.83 1055.13C457.08 1054.74 458.16 1054.23 459.06 1053.54C459.96 1052.88 460.44 1051.98 460.44 1050.87C460.44 1049.76 460.01 1048.94 459.14 1048.41C458.32 1047.88 457.21 1047.51 455.83 1047.25C454.48 1047.01 452.92 1046.85 451.15 1046.82C449.43 1046.72 447.66 1046.61 445.83 1046.45C444.01 1046.32 442.21 1046.06 440.43 1045.74C438.71 1045.4 437.15 1044.84 435.75 1044.07C434.4 1043.25 433.29 1042.17 432.44 1040.84C431.62 1039.44 431.23 1037.64 431.23 1035.45C431.23 1033.97 431.57 1032.48 432.23 1031.06C432.95 1029.63 434.03 1028.36 435.46 1027.25C436.89 1026.13 438.71 1025.26 440.94 1024.57C443.13 1023.86 445.73 1023.49 448.72 1023.49C451.26 1023.49 453.48 1023.67 455.33 1024.07C457.21 1024.47 458.82 1024.86 460.15 1025.29C461.55 1025.71 462.69 1026.13 463.61 1026.5C464.56 1026.9 465.36 1027.09 465.99 1027.09C466.65 1027.09 467.16 1026.95 467.42 1026.66L468.3 1027.25L463.32 1036.24L462.61 1035.95C462.5 1035.29 462.32 1034.73 462.02 1034.28C461.63 1033.7 460.99 1033.15 460.09 1032.62C459.22 1032.03 458.19 1031.53 457 1031.11C455.81 1030.68 454.51 1030.34 453.11 1030.1C451.71 1029.81 450.33 1029.68 448.93 1029.68C447.87 1029.68 446.76 1029.79 445.62 1029.97C444.51 1030.1 443.5 1030.37 442.6 1030.68C441.7 1031.03 440.91 1031.48 440.3 1032.06C439.72 1032.59 439.43 1033.25 439.43 1034.07C439.43 1035.24 439.83 1036.08 440.65 1036.66C441.52 1037.25 442.6 1037.67 443.95 1037.96C445.36 1038.25 446.92 1038.44 448.64 1038.54C450.41 1038.65 452.21 1038.75 454.03 1038.91C455.86 1039.05 457.63 1039.31 459.35 1039.71C461.13 1040.05 462.69 1040.61 464.04 1041.43C465.44 1042.19 466.52 1043.25 467.34 1044.6C468.22 1045.95 468.64 1047.7 468.64 1049.87C468.64 1052.35 467.98 1054.39 466.63 1055.98C465.33 1057.57 463.69 1058.81 461.73 1059.74C459.78 1060.64 457.63 1061.27 455.33 1061.61C453.08 1061.91 450.97 1062.04 449.01 1062.04C446.28 1062.04 443.98 1061.91 442.1 1061.61C440.28 1061.27 438.74 1060.9 437.5 1060.45C436.31 1059.97 435.33 1059.55 434.61 1059.23C433.9 1058.84 433.26 1058.65 432.74 1058.65C432.39 1058.65 432.1 1058.84 431.81 1059.23L430.8 1058.65L434.75 1049.92Z" />
						<path id="path5235" class="shp0" d="M513.43 1026.53C513.43 1025.66 512.9 1025.23 511.85 1025.23L511.85 1023.94L522.93 1023.94L522.93 1025.23C522.59 1025.23 522.3 1025.37 522.01 1025.6C521.77 1025.79 521.64 1026.11 521.64 1026.53L521.64 1059.21C521.64 1059.63 521.77 1059.97 522.01 1060.21C522.3 1060.4 522.61 1060.5 522.93 1060.5L522.93 1061.8L511.85 1061.8L511.85 1060.5C512.9 1060.5 513.43 1060.08 513.43 1059.21L513.43 1045.66L490.26 1045.66L490.26 1059.21C490.26 1059.63 490.39 1059.97 490.63 1060.21C490.92 1060.4 491.23 1060.5 491.55 1060.5L491.55 1061.8L480.68 1061.8L480.68 1060.5C481.58 1060.5 482.05 1060.08 482.05 1059.21L482.05 1026.53C482.05 1025.66 481.6 1025.23 480.68 1025.23L480.68 1023.94L491.55 1023.94L491.55 1025.23C491.21 1025.23 490.92 1025.37 490.63 1025.6C490.39 1025.79 490.26 1026.11 490.26 1026.53L490.26 1038.78L513.43 1038.78L513.43 1026.53Z" />
						<path id="path5237" class="shp0" d="M535.79 1060.5C537.03 1060.5 537.67 1060.08 537.67 1059.21L537.67 1026.53C537.67 1025.66 537.03 1025.23 535.79 1025.23L535.79 1023.94L547.75 1023.94L547.75 1025.23C546.51 1025.23 545.87 1025.66 545.87 1026.53L545.87 1059.21C545.87 1060.08 546.51 1060.5 547.75 1060.5L547.75 1061.8L535.79 1061.8L535.79 1060.5Z" />
						<path id="path5239" class="shp0" d="M560.26 1060.5C561.16 1060.5 561.64 1060.08 561.64 1059.21L561.64 1026.53C561.64 1025.66 561.19 1025.23 560.26 1025.23L560.26 1023.94L572.57 1023.94L572.57 1025.23C572.17 1025.23 571.99 1025.47 571.99 1025.95C571.99 1026.35 572.46 1027.01 573.41 1027.96L595.08 1049.42L594.08 1026.53C594.08 1025.66 593.44 1025.23 592.2 1025.23L592.2 1023.94L603.07 1023.94L603.07 1025.23C602.17 1025.23 601.7 1025.66 601.7 1026.53L601.7 1059.21C601.7 1060.08 602.15 1060.5 603.07 1060.5L603.07 1061.8L591.41 1061.8L591.41 1060.5C592.04 1060.5 592.33 1060.29 592.33 1059.87C592.33 1059.52 591.94 1058.97 591.17 1058.2L569.21 1035.31L569.21 1059.21C569.21 1060.08 569.76 1060.5 570.87 1060.5L570.87 1061.8L560.21 1061.8L560.21 1060.5L560.26 1060.5Z" />
						<path id="path5241" class="shp0" d="M650.36 1035.61L648.93 1035.18C649.03 1034.89 649.06 1034.6 649.06 1034.31C649.06 1033.6 648.61 1032.93 647.68 1032.38C646.81 1031.8 645.7 1031.32 644.3 1030.95C642.95 1030.53 641.47 1030.21 639.82 1030.02C638.24 1029.84 636.73 1029.73 635.3 1029.73C633.53 1029.73 631.75 1030 629.98 1030.53C628.26 1031 626.7 1031.77 625.3 1032.83C623.95 1033.89 622.84 1035.26 621.99 1036.93C621.17 1038.6 620.77 1040.66 620.77 1043.04C620.77 1045.4 621.17 1047.43 621.99 1049.15C622.86 1050.82 623.95 1052.2 625.3 1053.25C626.7 1054.31 628.26 1055.11 629.98 1055.63C631.75 1056.11 633.53 1056.35 635.3 1056.35C638.03 1056.35 640.49 1056.14 642.66 1055.71C644.85 1055.24 646.73 1054.74 648.26 1054.21L648.26 1048.01L639.06 1048.01C638.4 1048.01 637.89 1048.15 637.55 1048.44C637.21 1048.73 636.99 1049.34 636.91 1050.32L635.62 1050.32L635.62 1041.11L636.91 1041.11C637.02 1041.93 637.23 1042.46 637.55 1042.7C637.89 1042.88 638.4 1042.99 639.06 1042.99L657.05 1042.99L657.05 1044.28C656.1 1044.42 655.49 1044.6 655.25 1044.79C655.01 1044.97 654.88 1045.4 654.88 1046L654.88 1054.15C654.88 1054.63 655.01 1054.95 655.3 1055.08C655.59 1055.21 655.94 1055.4 656.31 1055.58L656.31 1056.75C654.72 1057.86 653.05 1058.76 651.28 1059.47C649.56 1060.19 647.79 1060.77 645.96 1061.19C644.19 1061.59 642.39 1061.83 640.57 1061.91C638.79 1062.01 637.05 1062.04 635.3 1062.04C631.94 1062.04 628.87 1061.64 626.09 1060.82C623.37 1059.95 621.01 1058.7 619.03 1057.06C617.07 1055.4 615.54 1053.36 614.42 1051C613.37 1048.6 612.84 1045.9 612.84 1042.86C612.84 1039.81 613.37 1037.14 614.42 1034.79C615.54 1032.38 617.07 1030.34 619.03 1028.67C620.99 1027.01 623.34 1025.71 626.09 1024.86C628.87 1023.96 631.94 1023.49 635.3 1023.49C637.42 1023.49 639.43 1023.62 641.36 1023.91C643.29 1024.2 644.98 1024.55 646.47 1024.92C647.95 1025.26 649.19 1025.58 650.14 1025.92C651.15 1026.21 651.78 1026.35 652.02 1026.35C652.45 1026.35 652.79 1026.24 653.03 1026.05C653.27 1025.87 653.5 1025.68 653.74 1025.55L654.61 1026.05L650.36 1035.61Z" />
					</g>
					<path id="path5141-9-8-4-6-10-9-4-9" class="shp1" d="M410.89 849.76L896.59 157.76C1122.79 306.96 1104.39 776.36 477.89 761.56" />
					<g id="flowRoot5423-4-7-1-9-4-5">
						<path id="path5198" class="shp0" d="M449.72 815.45L381.39 912.89L352.14 912.89L420.32 815.45L449.72 815.45Z" />
						<path id="path5200" class="shp0" d="M496.31 815.45L427.98 912.89L398.73 912.89L466.9 815.45L496.31 815.45Z" />
						<path id="path5202" class="shp0" d="M625.09 815.45L556.76 912.89L529.55 912.89L515.74 854.26L474.41 912.89L445.31 912.89L513.49 815.45L540.85 815.45L554.78 874.03L595.9 815.45L625.09 815.45Z" />
						<path id="path5204" class="shp0" d="M761.37 815.45L693.04 912.89L665.84 912.89L652.03 854.26L610.69 912.89L581.6 912.89L649.78 815.45L677.13 815.45L691.07 874.03L732.19 815.45L761.37 815.45Z" />
						<path id="path5206" fill-rule="evenodd" class="shp0" d="M814.78 912.89L784.35 912.89L792.67 891.3L757.81 891.3L734.91 912.89L705.07 912.89L814.22 815.45L845.15 815.45L814.78 912.89ZM797.93 877.6L812.1 840.34L772.65 877.6L797.93 877.6Z" />
						<path id="path5208" class="shp0" d="M983.92 817.56L967.51 839.5C964.52 838.52 961.54 837.75 958.59 837.17C955.65 836.56 952.79 836.11 949.98 835.85C947.17 835.58 944.43 835.42 941.8 835.42C936.31 835.42 930.63 836.19 924.75 837.75C918.97 839.26 913.3 841.48 907.82 844.42C902.31 847.33 897.42 850.8 893.1 854.82C888.86 858.81 885.5 863.12 883.03 867.83C880.55 872.54 879.54 876.75 880 880.48C880.47 884.19 882.29 887.1 885.46 889.21C888.71 891.28 892.95 892.31 898.16 892.31C911.56 892.31 927.69 888 946.49 879.37L927.14 906.3C923.96 907.23 920.38 908.26 916.41 909.32C912.42 910.41 909.09 911.25 906.42 911.86C903.77 912.42 900.48 912.95 896.61 913.4C892.78 913.9 888.95 914.16 885.17 914.16C877.54 914.16 870.8 913.24 864.94 911.41C859.14 909.59 854.51 906.75 851.12 902.89C847.72 899.03 845.96 894.37 845.89 888.84C845.85 883.26 847.69 876.94 851.42 869.85C854.45 864.08 858.73 858.07 864.26 851.85C869.86 845.58 876.87 839.58 885.27 833.86C893.73 828.09 903.79 823.36 915.42 819.65C927.04 815.95 939.84 814.1 953.79 814.1C959.44 814.1 964.31 814.39 968.36 814.94C972.45 815.47 977.64 816.35 983.92 817.56Z" />
						<path id="path5210" class="shp0" d="M1045.75 895.46L1033.6 912.89L952.15 912.89L1019.98 815.45L1049.42 815.45L993.64 895.46L1045.75 895.46Z" />
						<path id="path5212" class="shp0" d="M1182.66 815.45L1170.65 832.8L1124.4 832.8L1109.73 853.97L1149.86 853.97L1137.81 871.41L1097.33 871.41L1080.8 895.46L1137 895.46L1124.94 912.89L1039.31 912.89L1107.14 815.45L1182.66 815.45Z" />
					</g>
				</g>
			</g>
			<g id="Layer_2">
				<path id="Layer" class="shp2" d="M864 142.5C468.7 224 151 597.8 21 943.5" />
				<path id="Layer" class="shp3" d="M21 943.5C408 943.5 784.4 945.9 1170 943.5C1170.3 943.5 1170.3 943.4 1170 943.5C983.9 1022.2 875.5 1041.3 693.1 1051.3" />
			</g>
		</g>
	</g>
</svg>